<svg width="288" height="80" viewBox="0 0 288 80" fill="none" xmlns="http://www.w3.org/2000/svg">
<path d="M52.4298 59.4204C52.4298 59.8925 51.3223 60.2738 49.1072 60.5643C46.8922 60.8548 44.659 61 42.4077 61C40.1926 61 38.7583 60.8729 38.1047 60.6187C37.4874 60.3645 37.1787 59.9651 37.1787 59.4204V24.3974C37.1787 23.4533 38.3589 22.7816 40.7191 22.3821C43.1157 21.9827 46.1296 21.783 49.7609 21.783C53.3921 21.783 55.7342 21.8011 56.7872 21.8374C57.8766 21.8374 59.1475 21.8919 60.6 22.0008C62.0525 22.1098 63.1963 22.2913 64.0315 22.5455C64.903 22.7997 65.8471 23.1265 66.8638 23.526C67.9169 23.9254 68.7339 24.4519 69.3149 25.1055C69.8959 25.7228 70.4587 26.4672 71.0034 27.3387C71.9838 28.9001 72.474 31.1333 72.474 34.0383C72.474 36.9069 71.9838 39.3399 71.0034 41.337C70.0593 43.2979 68.7884 44.7867 67.1906 45.8034C71.3665 52.3759 73.4545 56.5518 73.4545 58.3311C73.4545 60.1104 69.8777 61 62.7243 61C60.6545 61 59.2201 60.9092 58.4213 60.7277C57.6224 60.5461 57.114 60.1467 56.8962 59.5294L53.3557 48.3089L52.4298 48.2545V59.4204ZM52.4298 39.8664H53.846C55.9521 39.8664 57.0051 38.2323 57.0051 34.9643C57.0051 33.2939 56.7146 32.1138 56.1336 31.4238C55.5889 30.7339 54.9535 30.3889 54.2272 30.3889H52.4298V39.8664ZM95.4294 61.4902C92.4155 61.4902 89.8191 61.2179 87.6404 60.6732C85.498 60.0922 83.519 59.0755 81.7034 57.623C78.0359 54.7543 76.2021 49.253 76.2021 41.1191C76.2021 37.7058 76.6923 34.7282 77.6728 32.1864C78.6895 29.6445 80.0875 27.6292 81.8668 26.1404C85.3528 23.2355 89.8736 21.783 95.4294 21.783C98.298 21.783 100.785 22.0372 102.891 22.5455C105.034 23.0539 107.049 23.9799 108.937 25.3234C112.75 28.0831 114.657 33.3484 114.657 41.1191C114.657 48.0911 112.932 53.2292 109.482 56.5336C106.032 59.838 101.348 61.4902 95.4294 61.4902ZM93.6319 52.1762C94.0677 52.6845 94.6668 52.9387 95.4294 52.9387C96.1919 52.9387 96.7911 52.6845 97.2268 52.1762C97.6626 51.6315 98.0257 50.5058 98.3162 48.7991C98.6067 47.0562 98.7519 44.6414 98.7519 41.5549C98.7519 38.4684 98.6067 36.0899 98.3162 34.4196C98.0257 32.7492 97.6626 31.6599 97.2268 31.1515C96.7911 30.6431 96.1919 30.3889 95.4294 30.3889C94.6668 30.3889 94.0677 30.6431 93.6319 31.1515C93.1962 31.6599 92.833 32.7492 92.5426 34.4196C92.2521 36.0899 92.1068 38.4684 92.1068 41.5549C92.1068 44.6414 92.2521 47.0562 92.5426 48.7991C92.833 50.5058 93.1962 51.6315 93.6319 52.1762ZM137.451 61.4902C134.437 61.4902 131.84 61.2179 129.662 60.6732C127.519 60.0922 125.54 59.0755 123.725 57.623C120.057 54.7543 118.223 49.253 118.223 41.1191C118.223 37.7058 118.714 34.7282 119.694 32.1864C120.711 29.6445 122.109 27.6292 123.888 26.1404C127.374 23.2355 131.895 21.783 137.451 21.783C140.319 21.783 142.807 22.0372 144.913 22.5455C147.055 23.0539 149.07 23.9799 150.959 25.3234C154.771 28.0831 156.678 33.3484 156.678 41.1191C156.678 48.0911 154.953 53.2292 151.503 56.5336C148.054 59.838 143.37 61.4902 137.451 61.4902ZM135.653 52.1762C136.089 52.6845 136.688 52.9387 137.451 52.9387C138.213 52.9387 138.812 52.6845 139.248 52.1762C139.684 51.6315 140.047 50.5058 140.337 48.7991C140.628 47.0562 140.773 44.6414 140.773 41.5549C140.773 38.4684 140.628 36.0899 140.337 34.4196C140.047 32.7492 139.684 31.6599 139.248 31.1515C138.812 30.6431 138.213 30.3889 137.451 30.3889C136.688 30.3889 136.089 30.6431 135.653 31.1515C135.217 31.6599 134.854 32.7492 134.564 34.4196C134.273 36.0899 134.128 38.4684 134.128 41.5549C134.128 44.6414 134.273 47.0562 134.564 48.7991C134.854 50.5058 135.217 51.6315 135.653 52.1762Z" fill="#3D2200"/>
<path d="M176.258 59.3115C176.258 59.7835 175.133 60.1648 172.881 60.4553C170.666 60.7458 168.451 60.8911 166.236 60.8911C164.021 60.8911 162.605 60.764 161.988 60.5098C161.37 60.2556 161.062 59.8562 161.062 59.3115V25.9225C161.062 24.9784 162.078 24.1433 164.112 23.417C166.182 22.6908 168.56 22.3277 171.247 22.3277C173.462 22.3277 174.897 22.7634 175.55 23.6349C176.022 24.2522 176.258 24.815 176.258 25.3234V34.3106H176.694C176.694 34.1291 177.239 32.6221 178.328 29.7898C180.398 24.4519 181.905 21.783 182.849 21.783C184.628 21.783 187.134 22.3095 190.366 23.3625C191.927 23.8709 193.27 24.6153 194.396 25.5957C195.522 26.5399 196.085 27.5929 196.085 28.7549C196.085 29.4811 195.34 30.8973 193.851 33.0034C192.399 35.0732 190.184 37.8511 187.206 41.337C187.896 42.0633 188.768 42.9892 189.821 44.1149C190.874 45.2406 192.272 46.9291 194.015 49.1804C195.794 51.3955 196.684 52.975 196.684 53.9191C196.684 54.8633 195.83 55.9708 194.124 57.2417C192.417 58.4763 190.602 59.493 188.677 60.2919C186.752 61.0545 185.318 61.4357 184.374 61.4357C183.757 61.4357 182.903 60.5098 181.814 58.6579C180.761 56.7696 179.472 53.9555 177.947 50.2153L176.258 52.2306V59.3115ZM215.726 59.6928C215.726 60.0922 214.619 60.419 212.404 60.6732C210.189 60.8911 207.956 61 205.704 61C203.489 61 202.073 60.9092 201.456 60.7277C200.838 60.5098 200.53 60.1648 200.53 59.6928V25.8136C200.53 25.0147 201.583 24.234 203.689 23.4715C205.795 22.6726 208.155 22.2732 210.77 22.2732C213.094 22.2732 214.619 22.7634 215.345 23.7438C215.599 24.1069 215.726 24.4701 215.726 24.8332V59.6928ZM250.477 33.3847C250.477 34.0383 249.515 35.5452 247.59 37.9055C245.666 40.2658 242.779 43.4613 238.93 47.4919H250.423C250.822 47.4919 251.149 48.0366 251.403 49.126C251.693 50.179 251.839 51.686 251.839 53.6468C251.839 55.5713 251.603 57.278 251.131 58.7668C250.695 60.2556 250.096 61 249.333 61H222.807C221.754 61 220.992 59.947 220.52 57.8409C220.084 55.7348 219.866 53.4471 219.866 50.9779C219.866 50.4332 220.883 48.9444 222.916 46.5115C224.95 44.0786 228.018 40.6834 232.121 36.326H221.554C220.574 36.326 220.084 34.7464 220.084 31.5872C220.084 29.3722 220.32 27.2843 220.792 25.3234C221.264 23.3262 221.863 22.3277 222.589 22.3277H247.699C249.551 22.3277 250.477 26.0133 250.477 33.3847Z" fill="#FFC633"/>
</svg>
